<svg viewBox="0 0 446 342" width="100%" height="100%" preserveAspectRatio="xMidYMid meet" fill="none" xmlns="http://www.w3.org/2000/svg" style="display:block"><foreignObject x="-60" y="-60" width="566" height="462"><div xmlns="http://www.w3.org/1999/xhtml" style="backdrop-filter:blur(30px);clip-path:url(#ap-c0);height:100%;width:100%"></div></foreignObject><g clip-path="url(#ap-cl0)"><rect width="446" height="342" rx="16" fill="white" fill-opacity="0.05"></rect><g filter="url(#ap-f1)"><path d="M34.8908 285.415C-2.13276 269.497 -15.7962 303.75 -18 322.867V341C-18 354.255 -7.25483 365 6 365H433C446.255 365 457 354.255 457 341V189.499C457 187.519 456.79 185.543 456.152 183.669C451.865 171.083 438.23 150.994 410.721 153.162C373.595 156.088 343.081 236.259 329.859 240.94C316.636 245.622 290.699 226.311 270.357 209.925C250.014 193.54 233.74 195.881 195.597 219.873C157.455 243.866 152.369 267.859 117.787 299.459C83.2045 331.059 81.1702 305.311 34.8908 285.415Z" fill="#DED8FF"></path><path d="M34.8908 312.819C-0.198454 302.928 -14.3047 322.584 -17.5591 335.335C-17.9036 336.685 -18 338.075 -18 339.469V341C-18 354.255 -7.25483 365 6 365H433C446.255 365 457 354.255 457 341V252.435C457 249.488 456.548 246.507 454.938 244.038C449.589 235.838 436.024 224.799 410.721 226.106C373.595 228.025 343.081 280.589 329.859 283.659C316.636 286.728 290.699 274.067 270.357 263.324C250.014 252.58 233.74 254.115 195.597 269.846C157.455 285.577 152.369 301.308 117.787 322.027C83.2045 342.746 81.1702 325.864 34.8908 312.819Z" fill="#EA6115"></path><path d="M42.7226 320.35C8.63861 301.364 -9.44238 326.637 -14.2224 341.646L-15.967 351.881C-18.1943 364.948 -9.40748 377.346 3.65888 379.573L421.63 450.82C434.696 453.047 447.094 444.261 449.322 431.194L469.157 314.828C469.559 312.473 469.668 310.06 469.052 307.752C466.136 296.809 455.354 279.472 429.003 276.716C392.236 272.87 351.353 332.268 337.758 333.826C324.164 335.384 301.405 315.518 283.726 298.941C266.046 282.363 249.783 281.529 209.131 294.461C168.478 307.392 160.207 325.844 121.998 345.49C83.7896 365.135 85.3276 344.083 42.7226 320.35Z" fill="#593BFF"></path></g><foreignObject x="-12" y="-12" width="470" height="366"><div xmlns="http://www.w3.org/1999/xhtml" style="backdrop-filter:blur(12px);clip-path:url(#ap-c1);height:100%;width:100%"></div></foreignObject><g clip-path="url(#ap-cl2)"><rect x="12" y="12" width="422" height="318" rx="16" fill="#060318" fill-opacity="0.2"></rect><g filter="url(#ap-f3)"><rect x="12" y="-53.5542" width="172.321" height="856.664" transform="rotate(-41.1734 12 -53.5542)" fill="url(#ap-lg0)" fill-opacity="0.15"></rect></g><g filter="url(#ap-f4)"><rect x="-38" y="-53.9463" width="28.942" height="628.171" transform="rotate(-41.1734 -38 -53.9463)" fill="url(#ap-lg1)"></rect></g><g filter="url(#ap-f5)"><rect x="128" y="-39.7832" width="62.6072" height="337.55" transform="rotate(-41.1734 128 -39.7832)" fill="url(#ap-lg2)" shape-rendering="crispEdges"></rect></g><g filter="url(#ap-f6)"><rect x="21" y="20.2168" width="15.428" height="337.55" transform="rotate(-41.1734 21 20.2168)" fill="url(#ap-lg3)" shape-rendering="crispEdges"></rect></g><foreignObject x="24.5" y="20" width="413" height="116"><div xmlns="http://www.w3.org/1999/xhtml" style="backdrop-filter:blur(10px);clip-path:url(#ap-c4);height:100%;width:100%"></div></foreignObject><g clip-path="url(#ap-cl4)"><rect x="44.5" y="40" width="373" height="76" rx="20" fill="white" fill-opacity="0.2"></rect><g filter="url(#ap-f8)"><ellipse cx="175.222" cy="123.398" rx="201.97" ry="33.5" transform="rotate(8.91618 175.222 123.398)" fill="url(#ap-lg4)"></ellipse></g><g filter="url(#ap-f9)"><circle cx="81.3647" cy="68.6979" r="19.6979" fill="url(#ap-lg5)"></circle></g><foreignObject x="44.5" y="40" width="74" height="74"><div xmlns="http://www.w3.org/1999/xhtml" style="backdrop-filter:blur(3px);clip-path:url(#ap-c6);height:100%;width:100%"></div></foreignObject><g id="ap-icon1" filter="url(#ap-f10)" style="transform-box: fill-box; transform-origin: center center; transition: transform 180ms ease-out, filter 180ms ease-out; transform: scale(1); filter: drop-shadow(rgba(200, 180, 255, 0.4) 0px 0px 4px);"><g clip-path="url(#ap-cl6)"><rect x="50.5" y="46" width="62" height="62" rx="18" fill="white" fill-opacity="0.15"></rect><g filter="url(#ap-f11)"><ellipse cx="72.5" cy="84" rx="22" ry="22" transform="rotate(-75 72.5 84)" fill="url(#ap-lg6)"></ellipse></g><g clip-path="url(#ap-cl8)"><path d="M95.2943 67.3636C95.2917 67.0445 95.0322 66.7879 94.7137 66.7879C94.3882 66.7905 94.1301 67.0526 94.1327 67.3734L94.1426 68.5803C90.7978 64.0019 85.4568 61.2886 79.7133 61.2886C74.1745 61.2886 69.0489 63.7691 65.6504 68.094C65.4524 68.346 65.4962 68.711 65.7482 68.9093C66.0005 69.1075 66.3654 69.0637 66.5637 68.8114C69.7404 64.7684 74.5334 62.4499 79.7133 62.4499C85.1008 62.4499 90.1045 65.0059 93.2293 69.3087H92.0009C91.6804 69.3087 91.4203 69.5689 91.4203 69.8894C91.4203 70.2099 91.6804 70.47 92.0009 70.47H94.7343C95.0513 70.47 95.3176 70.2015 95.3149 69.8844L95.2943 67.3636Z" fill="url(#ap-lg7)"></path><path d="M97.4999 78.8441C97.4999 76.6728 97.103 74.5534 96.3203 72.5444C96.2039 72.246 95.8674 72.0979 95.5687 72.2143C95.2699 72.3304 95.1219 72.6675 95.2386 72.9662C95.9687 74.84 96.3389 76.8177 96.3389 78.8441C96.3389 85.8101 91.9693 91.9112 85.3888 94.2573L86.0165 93.2972C86.1918 93.029 86.1164 92.669 85.8481 92.4936C85.5795 92.3183 85.2198 92.3935 85.0442 92.662L83.6594 94.7811C83.4663 95.076 83.5888 95.4874 83.9111 95.63L86.2441 96.6589C86.929 96.9594 87.3978 95.8988 86.7127 95.5963L85.9837 95.2749C92.9125 92.7102 97.4999 86.2328 97.4999 78.8441Z" fill="url(#ap-lg8)"></path><path d="M80.4023 95.2242C80.1738 95.2332 79.9442 95.2378 79.7134 95.2378C70.5461 95.2378 63.088 87.8837 63.088 78.8439C63.088 77.2445 63.7601 75.2445 64.4006 73.556L64.9127 74.6891C65.2219 75.3725 66.279 74.892 65.9712 74.2112L64.8886 71.8158C64.7548 71.5202 64.3904 71.3902 64.0995 71.5356L61.8208 72.6772C61.5339 72.8206 61.4181 73.1696 61.5615 73.4564C61.7052 73.7432 62.0548 73.8597 62.3407 73.7157L63.2759 73.2474C62.6134 75.0038 61.927 77.0863 61.927 78.8442C61.927 88.5241 69.906 96.3994 79.7136 96.3994C79.9598 96.3994 80.2049 96.3942 80.4485 96.3846C80.769 96.3721 81.0184 96.1018 81.0056 95.7816C80.9928 95.4608 80.7219 95.212 80.4023 95.2242Z" fill="url(#ap-lg9)"></path><path d="M79.5238 75.0601C77.2688 75.0601 75.4346 76.8479 75.4346 79.0459C75.4346 81.2433 77.2688 83.0314 79.5238 83.0314C81.7787 83.0314 83.613 81.2436 83.613 79.0459C83.613 76.8482 81.7787 75.0601 79.5238 75.0601Z" fill="url(#ap-lg10)"></path><path d="M89.7223 76.8004H88.5772C88.3784 75.9527 88.0297 75.0963 87.5512 74.281L88.3691 73.4646C88.871 72.9635 88.8815 72.1361 88.4222 71.6019C88.2071 71.3517 87.2757 70.4006 87.0365 70.1715C86.5479 69.7035 85.6755 69.6161 85.1662 70.1222L84.3533 70.9333C83.588 70.4694 82.7429 70.1126 81.8679 69.8832V68.7266C81.8679 67.9993 81.2962 67.4076 80.5725 67.385C80.2395 67.3745 78.9022 67.3667 78.571 67.385C77.8643 67.4242 77.2756 68.0124 77.2756 68.7266V69.9152C76.4255 70.1137 75.5661 70.4621 74.7489 70.94L73.9296 70.1224C73.4282 69.6222 72.6008 69.6121 72.0663 70.0696C71.8155 70.2842 70.862 71.2138 70.6327 71.4527C70.1638 71.9404 70.0756 72.8143 70.5836 73.3224L71.3951 74.1321C70.9309 74.8951 70.5732 75.7379 70.3435 76.6103H69.1828C68.4608 76.6103 67.9071 77.2676 67.8874 77.9519C67.8778 78.284 67.8691 79.6183 67.8874 79.949C67.9266 80.6562 68.5165 81.243 69.2304 81.243H70.3755C70.5743 82.0904 70.923 82.9472 71.4015 83.7627L70.5833 84.5791C70.0814 85.0802 70.0712 85.9076 70.5305 86.4418C70.7456 86.692 71.6773 87.6434 71.9165 87.8725C72.4063 88.3411 73.2764 88.4258 73.7868 87.9215L74.5997 87.1104C75.3647 87.574 76.2098 87.9311 77.0851 88.1605V89.3171C77.0851 90.0394 77.7444 90.5914 78.4281 90.6111C78.7611 90.6207 80.0984 90.6294 80.4296 90.6111C81.1363 90.5719 81.725 89.9837 81.725 89.2695V88.1285C82.5751 87.93 83.4345 87.5813 84.2517 87.1037L85.071 87.9213C85.5727 88.4218 86.3995 88.4316 86.9343 87.9738C87.1851 87.7593 88.1383 86.8296 88.3679 86.591C88.8371 86.1033 88.9253 85.2294 88.417 84.721L87.6055 83.9116C88.0698 83.1481 88.4274 82.3055 88.6571 81.4331H89.8178C90.3761 81.4331 90.903 80.9939 91.0586 80.4716C91.1396 80.1993 91.0958 77.9179 91.1089 78.0224C91.0186 77.303 90.4484 76.8004 89.7223 76.8004ZM79.5238 84.1924C76.6287 84.1924 74.2733 81.8837 74.2733 79.0455C74.2733 76.2073 76.6287 73.8984 79.5238 73.8984C82.4189 73.8984 84.7743 76.2073 84.7743 79.0455C84.7743 81.8837 82.4192 84.1924 79.5238 84.1924Z" fill="url(#ap-lg11)"></path></g></g></g><text x="127" y="67" font-family="-apple-system,BlinkMacSystemFont,'Segoe UI',sans-serif" font-size="14" font-weight="600" fill="white">Automation Start</text><rect x="126.5" y="79" width="272" height="21" rx="3" fill="white" fill-opacity="0.3"></rect><rect id="ap-bar1" x="132.5" y="87" width="261" height="6" rx="3" fill="url(#ap-bar-lg)" style="transition: width 900ms cubic-bezier(0.4, 0, 0.2, 1);"></rect></g><rect x="44.75" y="40.25" width="372.5" height="75.5" rx="19.75" stroke="url(#ap-lg18)" stroke-width="0.5"></rect><foreignObject x="24.5" y="113" width="413" height="116"><div xmlns="http://www.w3.org/1999/xhtml" style="backdrop-filter:blur(10px);clip-path:url(#ap-c10);height:100%;width:100%"></div></foreignObject><g clip-path="url(#ap-cl10)"><rect x="44.5" y="133" width="373" height="76" rx="20" fill="white" fill-opacity="0.2"></rect><g filter="url(#ap-f14)"><ellipse cx="201.97" cy="33.5" rx="201.97" ry="33.5" transform="matrix(-0.987916 0.154989 0.154989 0.987916 515.559 151)" fill="url(#ap-lg19)"></ellipse></g><g filter="url(#ap-f15)"><circle cx="81.3647" cy="161.698" r="19.6979" fill="url(#ap-lg20)"></circle></g><foreignObject x="44.5" y="133" width="74" height="74"><div xmlns="http://www.w3.org/1999/xhtml" style="backdrop-filter:blur(3px);clip-path:url(#ap-c12);height:100%;width:100%"></div></foreignObject><g id="ap-icon2" filter="url(#ap-f16)" style="transform-box: fill-box; transform-origin: center center; transition: none; transform: scale(1); filter: none;"><g clip-path="url(#ap-cl12)"><rect x="50.5" y="139" width="62" height="62" rx="18" fill="white" fill-opacity="0.15"></rect><g filter="url(#ap-f17)"><ellipse cx="72.5" cy="177" rx="22" ry="22" transform="rotate(-75 72.5 177)" fill="url(#ap-lg21)"></ellipse></g><path d="M96.7194 157.703L88.2127 183.222C88.0645 183.671 87.7784 184.061 87.3953 184.337C87.0121 184.613 86.5515 184.762 86.0791 184.761L86.0439 184.76C85.5657 184.754 85.1018 184.595 84.7203 184.307C84.3388 184.018 84.0596 183.615 83.9236 183.157L80.7132 172.455L89.0839 164.084C89.4133 163.141 88.2885 162.164 87.493 162.493L79.1224 170.864L68.4202 167.653C67.9623 167.516 67.5599 167.236 67.2716 166.855C66.9833 166.474 66.824 166.01 66.8167 165.532C66.8095 165.054 66.9548 164.586 67.2314 164.196C67.5081 163.806 67.9018 163.515 68.3554 163.364L93.8739 154.857C94.2703 154.725 94.6957 154.706 95.1024 154.802C95.5091 154.898 95.8811 155.105 96.1766 155.401C96.472 155.696 96.6793 156.068 96.7752 156.475C96.8711 156.882 96.8517 157.307 96.7194 157.703ZM73.3339 171.493L66.118 178.709C66.329 178.92 66.6151 179.038 66.9135 179.038C67.2118 179.038 67.4979 178.92 67.7089 178.709L73.3339 173.084C73.6635 172.141 73.3339 171.493 73.3339 171.493ZM80.0839 178.243L72.868 185.459C72.9725 185.563 73.233 185.703 73.6635 185.788C73.9574 185.759 74.2304 185.646 74.4589 185.459L80.0839 179.834C80.4135 178.891 80.0839 178.243 80.0839 178.243ZM74.4149 177.074L67.2376 182.748C67.0508 182.978 66.9388 183.252 66.9111 183.547C66.9419 183.841 67.0569 184.114 67.2461 184.342C67.4763 184.528 67.7507 184.639 68.0455 184.666C68.3398 184.634 68.6123 184.518 68.8394 184.328L74.4259 178.665C74.7498 177.867 74.4149 177.074 74.4149 177.074Z" fill="url(#ap-lg23)"></path></g></g><text x="127" y="160" font-family="-apple-system,BlinkMacSystemFont,'Segoe UI',sans-serif" font-size="14" font-weight="600" fill="white">Outbound Email</text><rect x="126.5" y="170" width="272" height="21" rx="3" fill="white" fill-opacity="0.3"></rect><rect id="ap-bar2" x="132.5" y="178" width="0" height="6" rx="3" fill="url(#ap-bar-lg2)" style="transition: none;"></rect></g><rect x="44.75" y="133.25" width="372.5" height="75.5" rx="19.75" stroke="url(#ap-lg25)" stroke-width="0.5"></rect><foreignObject x="24.5" y="206" width="413" height="116"><div xmlns="http://www.w3.org/1999/xhtml" style="backdrop-filter:blur(10px);clip-path:url(#ap-c14);height:100%;width:100%"></div></foreignObject><g clip-path="url(#ap-cl14)"><rect x="44.5" y="226" width="373" height="76" rx="20" fill="white" fill-opacity="0.2"></rect><g filter="url(#ap-f20)"><ellipse cx="222.654" cy="36.9308" rx="222.654" ry="36.9308" transform="matrix(0.987916 -0.154989 -0.154989 -0.987916 -104.052 416.987)" fill="url(#ap-lg26)"></ellipse></g><g filter="url(#ap-f21)"><circle cx="81.3647" cy="254.698" r="19.6979" fill="url(#ap-lg27)"></circle></g><foreignObject x="44.5" y="226" width="74" height="74"><div xmlns="http://www.w3.org/1999/xhtml" style="backdrop-filter:blur(3px);clip-path:url(#ap-c16);height:100%;width:100%"></div></foreignObject><g id="ap-icon3" filter="url(#ap-f22)" style="transform-box: fill-box; transform-origin: center center; transition: none; transform: scale(1); filter: none;"><g clip-path="url(#ap-cl16)"><rect x="50.5" y="232" width="62" height="62" rx="18" fill="white" fill-opacity="0.15"></rect><g filter="url(#ap-f23)"><ellipse cx="72.5" cy="270" rx="22" ry="22" transform="rotate(-75 72.5 270)" fill="url(#ap-lg28)"></ellipse></g><path d="M94.4432 268.998C94.3265 268.858 94.2119 268.717 94.0994 268.581C92.5525 266.71 91.6166 265.581 91.6166 260.285C91.6166 257.542 90.9606 255.292 89.6676 253.605C88.7141 252.358 87.4253 251.412 85.7266 250.714C85.7047 250.701 85.6852 250.685 85.6689 250.666C85.0579 248.62 83.3859 247.25 81.5001 247.25C79.6143 247.25 77.943 248.62 77.332 250.664C77.3157 250.683 77.2964 250.698 77.275 250.71C73.3108 252.342 71.3842 255.473 71.3842 260.282C71.3842 265.581 70.4498 266.71 68.9015 268.579C68.789 268.715 68.6744 268.853 68.5577 268.996C68.2562 269.36 68.0651 269.802 68.0072 270.271C67.9493 270.74 68.0268 271.215 68.2307 271.641C68.6645 272.555 69.5891 273.123 70.6445 273.123H92.3634C93.4138 273.123 94.3321 272.556 94.7674 271.646C94.9721 271.22 95.0504 270.744 94.993 270.275C94.9355 269.806 94.7447 269.363 94.4432 268.998Z" fill="white"></path><path d="M81.5001 278.75C82.5162 278.749 83.513 278.473 84.385 277.952C85.257 277.43 85.9716 276.683 86.4529 275.788C86.4756 275.745 86.4868 275.697 86.4854 275.648C86.4841 275.6 86.4702 275.553 86.4452 275.511C86.4201 275.469 86.3847 275.435 86.3425 275.411C86.3002 275.387 86.2525 275.375 86.204 275.375H76.7976C76.7491 275.375 76.7013 275.387 76.6589 275.411C76.6166 275.435 76.5811 275.469 76.556 275.511C76.5308 275.552 76.5169 275.6 76.5155 275.648C76.5141 275.697 76.5253 275.745 76.548 275.788C77.0293 276.682 77.7438 277.43 78.6156 277.952C79.4875 278.473 80.4842 278.749 81.5001 278.75Z" fill="white"></path></g></g><text x="127" y="253" font-family="-apple-system,BlinkMacSystemFont,'Segoe UI',sans-serif" font-size="14" font-weight="600" fill="white">Mobile Notification</text><rect x="127.5" y="266" width="272" height="21" rx="3" fill="white" fill-opacity="0.3"></rect><rect id="ap-bar3" x="133.5" y="274" width="0" height="6" rx="3" fill="url(#ap-bar-lg3)" style="transition: none;"></rect></g><rect x="44.75" y="226.25" width="372.5" height="75.5" rx="19.75" stroke="url(#ap-lg30)" stroke-width="0.5"></rect><path id="ap-conn1" d="M55 74H53C39.7452 74 29 84.7452 29 98V144C29 157.255 39.7452 168 53 168H55" stroke="url(#ap-conn-lg1)" stroke-width="0.5" stroke-dasharray="3 3" style="animation: auto ease 0s 1 normal none running none; transition: none; stroke-dasharray: 125.409; stroke-dashoffset: 125.409; opacity: 0.4;"></path><path id="ap-conn2" d="M55 168H53C39.7452 168 29 178.745 29 192V238C29 251.255 39.7452 262 53 262H55" stroke="url(#ap-conn-lg2)" stroke-width="0.5" stroke-dasharray="3 3" style="animation: auto ease 0s 1 normal none running none; transition: none; stroke-dasharray: 125.409; stroke-dashoffset: 125.409; opacity: 0.4;"></path><rect x="12.25" y="12.25" width="421.5" height="317.5" rx="15.75" stroke="url(#ap-outer)" stroke-width="0.5"></rect></g></g><defs><clipPath id="ap-c0" transform="translate(60 60)"><rect width="446" height="342" rx="16"></rect></clipPath><clipPath id="ap-c1" transform="translate(12 12)"><rect x="12" y="12" width="422" height="318" rx="16"></rect></clipPath><clipPath id="ap-c4" transform="translate(-24.5 -20)"><rect x="44.5" y="40" width="373" height="76" rx="20"></rect></clipPath><clipPath id="ap-c6" transform="translate(-44.5 -40)"><rect x="50.5" y="46" width="62" height="62" rx="18"></rect></clipPath><clipPath id="ap-c10" transform="translate(-24.5 -113)"><rect x="44.5" y="133" width="373" height="76" rx="20"></rect></clipPath><clipPath id="ap-c12" transform="translate(-44.5 -133)"><rect x="50.5" y="139" width="62" height="62" rx="18"></rect></clipPath><clipPath id="ap-c14" transform="translate(-24.5 -206)"><rect x="44.5" y="226" width="373" height="76" rx="20"></rect></clipPath><clipPath id="ap-c16" transform="translate(-44.5 -226)"><rect x="50.5" y="232" width="62" height="62" rx="18"></rect></clipPath><clipPath id="ap-cl0"><rect width="446" height="342" rx="16" fill="white"></rect></clipPath><clipPath id="ap-cl2"><rect x="12" y="12" width="422" height="318" rx="16" fill="white"></rect></clipPath><clipPath id="ap-cl4"><rect x="44.5" y="40" width="373" height="76" rx="20" fill="white"></rect></clipPath><clipPath id="ap-cl6"><rect x="50.5" y="46" width="62" height="62" rx="18" fill="white"></rect></clipPath><clipPath id="ap-cl8"><rect width="36" height="36" fill="white" transform="translate(61.5 61)"></rect></clipPath><clipPath id="ap-cl10"><rect x="44.5" y="133" width="373" height="76" rx="20" fill="white"></rect></clipPath><clipPath id="ap-cl12"><rect x="50.5" y="139" width="62" height="62" rx="18" fill="white"></rect></clipPath><clipPath id="ap-cl14"><rect x="44.5" y="226" width="373" height="76" rx="20" fill="white"></rect></clipPath><clipPath id="ap-cl16"><rect x="50.5" y="232" width="62" height="62" rx="18" fill="white"></rect></clipPath><filter id="ap-f1" x="-90" y="81" width="631" height="442" filterUnits="userSpaceOnUse" color-interpolation-filters="sRGB"><feFlood flood-opacity="0" result="BackgroundImageFix"></feFlood><feBlend in="SourceGraphic" in2="BackgroundImageFix" result="shape"></feBlend><feGaussianBlur stdDeviation="36" result="effect1"></feGaussianBlur></filter><filter id="ap-f3" x="12" y="-167" width="693" height="762" filterUnits="userSpaceOnUse" color-interpolation-filters="sRGB"><feFlood flood-opacity="0" result="BackgroundImageFix"></feFlood><feBlend in="SourceGraphic" in2="BackgroundImageFix" result="shape"></feBlend><feColorMatrix in="SourceAlpha" type="matrix" values="0 0 0 0 0 0 0 0 0 0 0 0 0 0 0 0 0 0 127 0" result="hardAlpha"></feColorMatrix><feOffset dy="4"></feOffset><feGaussianBlur stdDeviation="14"></feGaussianBlur><feComposite in2="hardAlpha" operator="arithmetic" k2="-1" k3="1"></feComposite><feColorMatrix type="matrix" values="0 0 0 0 0.869 0 0 0 0 0.846 0 0 0 0 1 0 0 0 1 0"></feColorMatrix><feBlend in2="shape" result="effect1"></feBlend></filter><filter id="ap-f4" x="-38" y="-73" width="435" height="495" filterUnits="userSpaceOnUse" color-interpolation-filters="sRGB"><feFlood flood-opacity="0" result="BackgroundImageFix"></feFlood><feBlend in="SourceGraphic" in2="BackgroundImageFix" result="shape"></feBlend><feColorMatrix in="SourceAlpha" type="matrix" values="0 0 0 0 0 0 0 0 0 0 0 0 0 0 0 0 0 0 127 0" result="hardAlpha"></feColorMatrix><feOffset dy="4"></feOffset><feGaussianBlur stdDeviation="14"></feGaussianBlur><feComposite in2="hardAlpha" operator="arithmetic" k2="-1" k3="1"></feComposite><feColorMatrix type="matrix" values="0 0 0 0 0.869 0 0 0 0 0.846 0 0 0 0 1 0 0 0 0.3 0"></feColorMatrix><feBlend in2="shape" result="effect1"></feBlend></filter><filter id="ap-f5" x="108" y="-101" width="309" height="335" filterUnits="userSpaceOnUse" color-interpolation-filters="sRGB"><feFlood flood-opacity="0" result="BackgroundImageFix"></feFlood><feColorMatrix in="SourceAlpha" type="matrix" values="0 0 0 0 0 0 0 0 0 0 0 0 0 0 0 0 0 0 127 0" result="hardAlpha"></feColorMatrix><feOffset dy="4"></feOffset><feGaussianBlur stdDeviation="2"></feGaussianBlur><feComposite in2="hardAlpha" operator="out"></feComposite><feColorMatrix type="matrix" values="0 0 0 0 0 0 0 0 0 0 0 0 0 0 0 0 0 0 0.25 0"></feColorMatrix><feBlend in2="BackgroundImageFix" result="effect1"></feBlend><feBlend in="SourceGraphic" in2="effect1" result="shape"></feBlend><feGaussianBlur stdDeviation="10" result="effect2"></feGaussianBlur></filter><filter id="ap-f6" x="1" y="-10" width="273" height="304" filterUnits="userSpaceOnUse" color-interpolation-filters="sRGB"><feFlood flood-opacity="0" result="BackgroundImageFix"></feFlood><feColorMatrix in="SourceAlpha" type="matrix" values="0 0 0 0 0 0 0 0 0 0 0 0 0 0 0 0 0 0 127 0" result="hardAlpha"></feColorMatrix><feOffset dy="4"></feOffset><feGaussianBlur stdDeviation="2"></feGaussianBlur><feComposite in2="hardAlpha" operator="out"></feComposite><feColorMatrix type="matrix" values="0 0 0 0 0 0 0 0 0 0 0 0 0 0 0 0 0 0 0.25 0"></feColorMatrix><feBlend in2="BackgroundImageFix" result="effect1"></feBlend><feBlend in="SourceGraphic" in2="effect1" result="shape"></feBlend><feGaussianBlur stdDeviation="10" result="effect2"></feGaussianBlur></filter><filter id="ap-f8" x="-76" y="25" width="503" height="195" filterUnits="userSpaceOnUse" color-interpolation-filters="sRGB"><feFlood flood-opacity="0" result="BackgroundImageFix"></feFlood><feBlend in="SourceGraphic" in2="BackgroundImageFix" result="shape"></feBlend><feGaussianBlur stdDeviation="26" result="effect1"></feGaussianBlur></filter><filter id="ap-f9" x="41" y="29" width="79" height="79" filterUnits="userSpaceOnUse" color-interpolation-filters="sRGB"><feFlood flood-opacity="0" result="BackgroundImageFix"></feFlood><feBlend in="SourceGraphic" in2="BackgroundImageFix" result="shape"></feBlend><feGaussianBlur stdDeviation="10" result="effect1"></feGaussianBlur></filter><filter id="ap-f10" x="44.5" y="40" width="74" height="74" filterUnits="userSpaceOnUse" color-interpolation-filters="sRGB"><feFlood flood-opacity="0" result="BackgroundImageFix"></feFlood><feBlend in="SourceGraphic" in2="BackgroundImageFix" result="shape"></feBlend><feColorMatrix in="SourceAlpha" type="matrix" values="0 0 0 0 0 0 0 0 0 0 0 0 0 0 0 0 0 0 127 0" result="hardAlpha"></feColorMatrix><feOffset dy="6"></feOffset><feGaussianBlur stdDeviation="3.5"></feGaussianBlur><feComposite in2="hardAlpha" operator="arithmetic" k2="-1" k3="1"></feComposite><feColorMatrix type="matrix" values="0 0 0 0 0.869 0 0 0 0 0.846 0 0 0 0 1 0 0 0 1 0"></feColorMatrix><feBlend in2="shape" result="effect1"></feBlend></filter><filter id="ap-f11" x="30" y="41" width="84" height="84" filterUnits="userSpaceOnUse" color-interpolation-filters="sRGB"><feFlood flood-opacity="0" result="BackgroundImageFix"></feFlood><feBlend in="SourceGraphic" in2="BackgroundImageFix" result="shape"></feBlend><feGaussianBlur stdDeviation="10" result="effect1"></feGaussianBlur></filter><filter id="ap-f14" x="69" y="117" width="503" height="195" filterUnits="userSpaceOnUse" color-interpolation-filters="sRGB"><feFlood flood-opacity="0" result="BackgroundImageFix"></feFlood><feBlend in="SourceGraphic" in2="BackgroundImageFix" result="shape"></feBlend><feGaussianBlur stdDeviation="26" result="effect1"></feGaussianBlur></filter><filter id="ap-f15" x="41" y="122" width="79" height="79" filterUnits="userSpaceOnUse" color-interpolation-filters="sRGB"><feFlood flood-opacity="0" result="BackgroundImageFix"></feFlood><feBlend in="SourceGraphic" in2="BackgroundImageFix" result="shape"></feBlend><feGaussianBlur stdDeviation="10" result="effect1"></feGaussianBlur></filter><filter id="ap-f16" x="44.5" y="133" width="74" height="74" filterUnits="userSpaceOnUse" color-interpolation-filters="sRGB"><feFlood flood-opacity="0" result="BackgroundImageFix"></feFlood><feBlend in="SourceGraphic" in2="BackgroundImageFix" result="shape"></feBlend><feColorMatrix in="SourceAlpha" type="matrix" values="0 0 0 0 0 0 0 0 0 0 0 0 0 0 0 0 0 0 127 0" result="hardAlpha"></feColorMatrix><feOffset dy="6"></feOffset><feGaussianBlur stdDeviation="3.5"></feGaussianBlur><feComposite in2="hardAlpha" operator="arithmetic" k2="-1" k3="1"></feComposite><feColorMatrix type="matrix" values="0 0 0 0 0.869 0 0 0 0 0.846 0 0 0 0 1 0 0 0 1 0"></feColorMatrix><feBlend in2="shape" result="effect1"></feBlend></filter><filter id="ap-f17" x="30" y="134" width="84" height="84" filterUnits="userSpaceOnUse" color-interpolation-filters="sRGB"><feFlood flood-opacity="0" result="BackgroundImageFix"></feFlood><feBlend in="SourceGraphic" in2="BackgroundImageFix" result="shape"></feBlend><feGaussianBlur stdDeviation="10" result="effect1"></feGaussianBlur></filter><filter id="ap-f20" x="-161" y="243" width="544" height="204" filterUnits="userSpaceOnUse" color-interpolation-filters="sRGB"><feFlood flood-opacity="0" result="BackgroundImageFix"></feFlood><feBlend in="SourceGraphic" in2="BackgroundImageFix" result="shape"></feBlend><feGaussianBlur stdDeviation="26" result="effect1"></feGaussianBlur></filter><filter id="ap-f21" x="41" y="215" width="79" height="79" filterUnits="userSpaceOnUse" color-interpolation-filters="sRGB"><feFlood flood-opacity="0" result="BackgroundImageFix"></feFlood><feBlend in="SourceGraphic" in2="BackgroundImageFix" result="shape"></feBlend><feGaussianBlur stdDeviation="10" result="effect1"></feGaussianBlur></filter><filter id="ap-f22" x="44.5" y="226" width="74" height="74" filterUnits="userSpaceOnUse" color-interpolation-filters="sRGB"><feFlood flood-opacity="0" result="BackgroundImageFix"></feFlood><feBlend in="SourceGraphic" in2="BackgroundImageFix" result="shape"></feBlend><feColorMatrix in="SourceAlpha" type="matrix" values="0 0 0 0 0 0 0 0 0 0 0 0 0 0 0 0 0 0 127 0" result="hardAlpha"></feColorMatrix><feOffset dy="6"></feOffset><feGaussianBlur stdDeviation="3.5"></feGaussianBlur><feComposite in2="hardAlpha" operator="arithmetic" k2="-1" k3="1"></feComposite><feColorMatrix type="matrix" values="0 0 0 0 0.869 0 0 0 0 0.846 0 0 0 0 1 0 0 0 1 0"></feColorMatrix><feBlend in2="shape" result="effect1"></feBlend></filter><filter id="ap-f23" x="30" y="227" width="84" height="84" filterUnits="userSpaceOnUse" color-interpolation-filters="sRGB"><feFlood flood-opacity="0" result="BackgroundImageFix"></feFlood><feBlend in="SourceGraphic" in2="BackgroundImageFix" result="shape"></feBlend><feGaussianBlur stdDeviation="10" result="effect1"></feGaussianBlur></filter><linearGradient id="ap-lg0" x1="65" y1="-10" x2="321" y2="700" gradientUnits="userSpaceOnUse"><stop stop-color="white" stop-opacity="0.1"></stop><stop offset="1" stop-color="white" stop-opacity="0"></stop></linearGradient><linearGradient id="ap-lg1" x1="-29" y1="-22" x2="237" y2="147" gradientUnits="userSpaceOnUse"><stop stop-color="white" stop-opacity="0.05"></stop><stop offset="1" stop-color="white" stop-opacity="0"></stop></linearGradient><linearGradient id="ap-lg2" x1="147" y1="-22" x2="254" y2="251" gradientUnits="userSpaceOnUse"><stop stop-color="white" stop-opacity="0.1"></stop><stop offset="1" stop-color="white" stop-opacity="0"></stop></linearGradient><linearGradient id="ap-lg3" x1="25" y1="37" x2="168" y2="127" gradientUnits="userSpaceOnUse"><stop stop-color="white" stop-opacity="0.1"></stop><stop offset="1" stop-color="white" stop-opacity="0"></stop></linearGradient><linearGradient id="ap-lg4" x1="66" y1="94" x2="78" y2="192" gradientUnits="userSpaceOnUse"><stop stop-color="#DED8FF"></stop><stop offset="0.55" stop-color="#DA5012"></stop><stop offset="1" stop-color="#593BFF"></stop></linearGradient><linearGradient id="ap-lg5" x1="61" y1="68" x2="85" y2="88" gradientUnits="userSpaceOnUse"><stop stop-color="white"></stop><stop offset="1" stop-color="#593BFF"></stop></linearGradient><linearGradient id="ap-lg6" x1="60" y1="64" x2="92" y2="106" gradientUnits="userSpaceOnUse"><stop stop-color="#DED8FF"></stop><stop offset="0.55" stop-color="#DA5012"></stop><stop offset="1" stop-color="#593BFF"></stop></linearGradient><linearGradient id="ap-lg7" x1="80" y1="61" x2="80" y2="70" gradientUnits="userSpaceOnUse"><stop stop-color="#DED8FF"></stop><stop offset="1" stop-color="white"></stop></linearGradient><linearGradient id="ap-lg8" x1="90" y1="72" x2="90" y2="96" gradientUnits="userSpaceOnUse"><stop stop-color="#DED8FF"></stop><stop offset="1" stop-color="white"></stop></linearGradient><linearGradient id="ap-lg9" x1="71" y1="71" x2="71" y2="96" gradientUnits="userSpaceOnUse"><stop stop-color="#DED8FF"></stop><stop offset="1" stop-color="white"></stop></linearGradient><linearGradient id="ap-lg10" x1="79" y1="75" x2="79" y2="83" gradientUnits="userSpaceOnUse"><stop stop-color="#DED8FF"></stop><stop offset="1" stop-color="white"></stop></linearGradient><linearGradient id="ap-lg11" x1="79" y1="67" x2="79" y2="90" gradientUnits="userSpaceOnUse"><stop stop-color="#DED8FF"></stop><stop offset="1" stop-color="white"></stop></linearGradient><linearGradient id="ap-bar-lg" x1="132" y1="90" x2="393" y2="90" gradientUnits="userSpaceOnUse"><stop stop-color="white"></stop><stop offset="1" stop-color="#593BFF"></stop></linearGradient><linearGradient id="ap-lg18" x1="44" y1="78" x2="66" y2="167" gradientUnits="userSpaceOnUse"><stop stop-color="white"></stop><stop offset="1" stop-color="#593BFF"></stop></linearGradient><linearGradient id="ap-lg19" x1="93" y1="4" x2="105" y2="102" gradientUnits="userSpaceOnUse"><stop stop-color="#DED8FF"></stop><stop offset="0.55" stop-color="#DA5012"></stop><stop offset="1" stop-color="#593BFF"></stop></linearGradient><linearGradient id="ap-lg20" x1="61" y1="161" x2="85" y2="181" gradientUnits="userSpaceOnUse"><stop stop-color="white"></stop><stop offset="1" stop-color="#593BFF"></stop></linearGradient><linearGradient id="ap-lg21" x1="60" y1="157" x2="92" y2="199" gradientUnits="userSpaceOnUse"><stop stop-color="#DED8FF"></stop><stop offset="0.55" stop-color="#DA5012"></stop><stop offset="1" stop-color="#593BFF"></stop></linearGradient><linearGradient id="ap-lg23" x1="81" y1="154" x2="81" y2="185" gradientUnits="userSpaceOnUse"><stop stop-color="#DED8FF"></stop><stop offset="1" stop-color="white"></stop></linearGradient><linearGradient id="ap-bar-lg2" x1="132" y1="181" x2="393" y2="181" gradientUnits="userSpaceOnUse"><stop stop-color="white"></stop><stop offset="1" stop-color="#593BFF"></stop></linearGradient><linearGradient id="ap-lg25" x1="44" y1="171" x2="66" y2="260" gradientUnits="userSpaceOnUse"><stop stop-color="white"></stop><stop offset="1" stop-color="#593BFF"></stop></linearGradient><linearGradient id="ap-lg26" x1="102" y1="4" x2="116" y2="112" gradientUnits="userSpaceOnUse"><stop stop-color="#DED8FF"></stop><stop offset="0.55" stop-color="#DA5012"></stop><stop offset="1" stop-color="#593BFF"></stop></linearGradient><linearGradient id="ap-lg27" x1="61" y1="254" x2="85" y2="274" gradientUnits="userSpaceOnUse"><stop stop-color="white"></stop><stop offset="1" stop-color="#593BFF"></stop></linearGradient><linearGradient id="ap-lg28" x1="60" y1="250" x2="92" y2="292" gradientUnits="userSpaceOnUse"><stop stop-color="#DED8FF"></stop><stop offset="0.55" stop-color="#DA5012"></stop><stop offset="1" stop-color="#593BFF"></stop></linearGradient><linearGradient id="ap-bar-lg3" x1="133" y1="277" x2="394" y2="277" gradientUnits="userSpaceOnUse"><stop stop-color="white"></stop><stop offset="1" stop-color="#593BFF"></stop></linearGradient><linearGradient id="ap-lg30" x1="44" y1="264" x2="66" y2="353" gradientUnits="userSpaceOnUse"><stop stop-color="white"></stop><stop offset="1" stop-color="#593BFF"></stop></linearGradient><linearGradient id="ap-conn-lg1" x1="46" y1="168" x2="29" y2="168" gradientUnits="userSpaceOnUse"><stop stop-color="#DED8FF"></stop><stop offset="1" stop-color="#674DFF"></stop></linearGradient><linearGradient id="ap-conn-lg2" x1="46" y1="262" x2="29" y2="262" gradientUnits="userSpaceOnUse"><stop stop-color="#DED8FF"></stop><stop offset="1" stop-color="#674DFF"></stop></linearGradient><linearGradient id="ap-outer" x1="109" y1="33" x2="313" y2="386" gradientUnits="userSpaceOnUse"><stop stop-color="#DED8FF"></stop><stop offset="0.55" stop-color="#DA5012"></stop><stop offset="1" stop-color="#593BFF"></stop></linearGradient></defs></svg>